<svg width="16" height="16" viewBox="0 0 16 16" fill="none" xmlns="http://www.w3.org/2000/svg">
<path d="M6.99136 2.96503H0V4.13985H6.99136V2.96503Z" fill="#6EBBE7"/>
<path d="M2.9292 0.00931978L2.9292 7.08624H4.08982V0.00931978H2.9292Z" fill="#6EBBE7"/>
<path d="M5.55554 9.36676L0.611946 14.3708L1.43262 15.2016L6.37621 10.1975L5.55554 9.36676Z" fill="#6EBBE7"/>
<path d="M0.618515 10.2034L5.56211 15.2075L6.38278 14.3768L1.43919 9.37268L0.618515 10.2034Z" fill="#6EBBE7"/>
<path d="M15.9724 2.96503H8.98101V4.13985H15.9724V2.96503Z" fill="#6EBBE7"/>
<path d="M15.9724 11.6923H8.98101V12.8671H15.9724V11.6923Z" fill="#6EBBE7"/>
<path d="M12.4905 10.4336C12.9941 10.4336 13.4024 10.0203 13.4024 9.51048C13.4024 9.00068 12.9941 8.5874 12.4905 8.5874C11.9869 8.5874 11.5786 9.00068 11.5786 9.51048C11.5786 10.0203 11.9869 10.4336 12.4905 10.4336Z" fill="#6EBBE7"/>
<path d="M12.4905 15.972C12.9941 15.972 13.4024 15.5587 13.4024 15.0489C13.4024 14.5391 12.9941 14.1259 12.4905 14.1259C11.9869 14.1259 11.5786 14.5391 11.5786 15.0489C11.5786 15.5587 11.9869 15.972 12.4905 15.972Z" fill="#6EBBE7"/>
</svg>
