<svg width="80" height="17" viewBox="0 0 80 17" fill="none" xmlns="http://www.w3.org/2000/svg">
<g clip-path="url(#clip0)">
<path d="M3.74321 16.6667C2.26334 16.6667 1.3493 16.4979 0.435264 16.1603C0.0435342 16.0338 -0.0870426 15.6118 0.0435341 15.2743C0.174111 14.9367 0.522315 14.7679 0.914046 14.8945C1.69751 15.1477 2.43744 15.3165 3.74321 15.3165C5.70186 15.3165 6.52884 14.4726 6.52884 13.249C6.52884 11.6878 4.87487 11.5612 3.17738 11.2236C1.56693 10.8861 0.0435341 10.3798 0.0435341 8.22786C0.0435341 6.16035 1.65398 4.97891 3.91731 4.97891C5.13603 4.97891 5.96301 5.10549 6.83352 5.44305C7.22525 5.56963 7.35583 5.99157 7.22525 6.32912C7.09468 6.62448 6.74647 6.83545 6.35474 6.66668C5.57128 6.37132 4.96192 6.24473 3.96084 6.24473C2.35039 6.24473 1.5234 7.04642 1.5234 8.14347C1.5234 9.57807 3.00327 9.74684 4.57019 10.0422C6.26769 10.3798 8.05224 10.8017 8.05224 13.1646C8.00871 15.4852 6.31122 16.6667 3.74321 16.6667Z" fill="white"/>
<path d="M11.4473 2.27848C10.8814 2.27848 10.4462 1.85654 10.4462 1.30802C10.4462 0.759496 10.8814 0.337555 11.4473 0.337555C12.0131 0.337555 12.4483 0.759496 12.4483 1.30802C12.4919 1.85654 12.0131 2.27848 11.4473 2.27848ZM11.4473 16.6667C11.012 16.6667 10.7073 16.3291 10.7073 15.9494V5.78059C10.7073 5.35865 11.0555 5.06329 11.4473 5.06329C11.839 5.06329 12.1872 5.35865 12.1872 5.78059V15.9494C12.2307 16.3291 11.8825 16.6667 11.4473 16.6667Z" fill="white"/>
<path d="M17.4538 16.6667C17.1926 16.6667 16.6703 16.4979 16.3221 16.2025C15.7998 15.7384 15.5822 15.0211 15.5822 14.346V0.7173C15.5822 0.295359 15.9304 0 16.3221 0C16.7573 0 17.062 0.337553 17.062 0.7173V13.9241C17.062 14.9367 17.3232 15.1899 17.8455 15.4008C18.1066 15.5274 18.1937 15.7384 18.1937 15.9916C18.1937 16.4135 17.889 16.6667 17.4538 16.6667Z" fill="white"/>
<path d="M28.9445 16.6667C28.5528 16.6667 28.2481 16.5401 27.9434 16.2869C27.6823 16.0759 27.5082 15.6962 27.3776 15.3587C26.5506 16.4135 25.1143 16.6245 24.0697 16.6245C21.1099 16.6245 19.9783 15.1055 19.9783 13.3755V13.2068C19.9783 11.4346 21.1535 10 24.1567 10H27.1165V9.36709C27.1165 7.29958 26.5942 6.32912 24.3744 6.32912C23.5474 6.32912 22.9815 6.4557 22.5028 6.62447C21.9804 6.83545 21.7193 7.04642 21.4581 7.04642C21.1099 7.04642 20.8053 6.79325 20.8053 6.4135C20.8053 6.03376 21.197 5.7384 21.8063 5.48523C22.5898 5.18988 23.5038 5.06329 24.4614 5.06329C27.7693 5.06329 28.6399 6.66667 28.6399 9.45148V13.9241C28.6399 14.8945 28.814 15.1899 29.3363 15.4008C29.5974 15.5274 29.728 15.7384 29.728 15.9916C29.6845 16.4135 29.3798 16.6667 28.9445 16.6667ZM27.16 11.1814H24.2873C22.0675 11.1814 21.5017 12.1941 21.5017 13.2068V13.3755C21.5017 14.4304 22.0675 15.4008 24.2438 15.4008C26.0718 15.4008 27.16 14.5148 27.16 12.7004V11.1814Z" fill="white"/>
<path d="M39.7389 6.37131L33.1665 15.1899H39.2165C39.6083 15.1899 39.913 15.4852 39.913 15.865C39.913 16.2447 39.6083 16.5401 39.2165 16.5401H31.8172C31.4255 16.5401 31.1208 16.2447 31.1208 15.8228C31.1208 15.654 31.1643 15.4852 31.2514 15.4008L37.8237 6.54009H32.2525C31.8607 6.54009 31.556 6.24473 31.556 5.86499C31.556 5.48524 31.9042 5.18988 32.2525 5.18988H39.173C39.5212 5.18988 39.8694 5.40085 39.8694 5.86499C39.913 6.03376 39.8259 6.20254 39.7389 6.37131Z" fill="#6EBBE7"/>
<path d="M46.5289 15.9072C46.3112 16.4979 45.963 16.6245 45.5713 16.6245C45.1361 16.6245 44.8314 16.4979 44.5702 15.9072C43.2209 12.5738 41.9587 9.15611 40.8705 5.90716C40.6964 5.35864 41.1317 5.02109 41.567 5.02109C41.8281 5.02109 42.1328 5.14767 42.2198 5.48522C43.2209 8.39662 44.3526 11.5612 45.5278 14.5991C46.7465 11.5612 47.9217 8.39662 48.8793 5.48522C49.0098 5.14767 49.3145 5.02109 49.5757 5.02109C50.0109 5.02109 50.4897 5.40083 50.3156 5.94936C49.2275 9.1983 47.9217 12.5738 46.5289 15.9072Z" fill="#FFB800"/>
<path d="M60.9793 10.6751C60.9793 11.0549 60.7182 11.308 60.37 11.308H53.5364V11.9831C53.5364 14.0085 54.4505 15.3587 56.5832 15.3587C57.6714 15.3587 58.3678 15.1899 58.8466 15.0211C59.3689 14.8101 59.6736 14.5992 60.0218 14.5992C60.37 14.5992 60.6311 14.8523 60.6311 15.2321C60.6311 15.6118 60.1959 15.9494 59.4995 16.2025C58.716 16.5401 57.6279 16.7089 56.5397 16.7089C53.2753 16.7089 52.1001 14.5148 52.1001 11.9409V9.83124C52.1001 7.29959 53.3188 5.1055 56.5832 5.1055C59.8912 5.1055 61.0229 7.17301 61.0229 9.83124V10.6751H60.9793ZM56.5397 6.28693C54.407 6.28693 53.5364 7.63714 53.5364 9.62027V10.0422H59.4995V9.57807C59.543 7.59495 58.803 6.28693 56.5397 6.28693Z" fill="#93FFEB"/>
<path d="M68.5528 16.4979H67.9434C64.7225 16.4979 64.0697 14.5992 64.0697 11.73V6.4979H63.2427C62.8509 6.4979 62.5463 6.20254 62.5463 5.8228C62.5463 5.44305 62.8509 5.18988 63.2427 5.18988H64.0697V2.40507C64.0697 1.98313 64.4179 1.68777 64.8096 1.68777C65.2448 1.68777 65.5495 2.02533 65.5495 2.40507V5.14769H67.8999C68.2916 5.14769 68.5963 5.40085 68.5963 5.7806C68.5963 6.16035 68.2916 6.45571 67.8999 6.45571H65.5495V11.73C65.5495 14.1772 65.9413 15.1477 67.987 15.1477H68.4657C68.8575 15.1477 69.1621 15.4852 69.1621 15.8228C69.2492 16.2025 68.9445 16.4979 68.5528 16.4979Z" fill="#6EBBE7"/>
<path d="M79.2166 16.6667C78.8248 16.6667 78.5202 16.5401 78.2155 16.2869C77.9543 16.0759 77.7802 15.6962 77.6497 15.3587C76.8227 16.4135 75.3863 16.6245 74.3417 16.6245C71.382 16.6245 70.2503 15.1055 70.2503 13.3755V13.2068C70.2503 11.4346 71.4255 10 74.4288 10H77.3885V9.36709C77.3885 7.29958 76.8662 6.32912 74.6464 6.32912C73.8194 6.32912 73.2536 6.4557 72.7748 6.62447C72.2525 6.83545 71.9913 7.04642 71.7302 7.04642C71.382 7.04642 71.0773 6.79325 71.0773 6.4135C71.0773 6.03376 71.469 5.7384 72.0784 5.48523C72.8618 5.18988 73.7759 5.06329 74.7334 5.06329C78.0414 5.06329 78.9119 6.66667 78.9119 9.45148V13.9241C78.9119 14.8945 79.086 15.1899 79.6083 15.4008C79.8695 15.5274 80 15.7384 80 15.9916C80 16.4135 79.6954 16.6667 79.2166 16.6667ZM77.4756 11.1814H74.6029C72.3831 11.1814 71.8172 12.1941 71.8172 13.2068V13.3755C71.8172 14.4304 72.3831 15.4008 74.5593 15.4008C76.3874 15.4008 77.4756 14.5148 77.4756 12.7004V11.1814Z" fill="#B3E2DA"/>
</g>
<defs>
<clipPath id="clip0">
<rect width="80" height="16.6667" fill="white"/>
</clipPath>
</defs>
</svg>
